# xmcd
#
# Track frame offsets:
#	150
#	14232
#	27757
#	41338
#	55476
#	67385
#	80074
#	94157
#	108741
#	121764
#	134398
#	149372
#	162507
#	177202
#	190894
#
# Disc length: 2751 seconds
#
# Revision: 1
# Processed by: cddbd v1.5.2PL0 Copyright (c) Steve Scherf et al.
# Submitted via: audiograbber 1.83.01
#
DISCID=e00abd0f
DTITLE=Buddu Williams - The Last Outback Entertainer
DYEAR=1900
DGENRE=Country
TTITLE0=Always Call Me Darling
TTITLE1=My Darling River Rose
TTITLE2=Wedding Bells
TTITLE3=The Black Sheep
TTITLE4=I'm Gonna Tear Down the Mailbox
TTITLE5=Beyond the Setting Sun
TTITLE6=A Mother as Lovely as You
TTITLE7=Too Many Parties Too Many Pals
TTITLE8=I Cant Sitting in a Cell
TTITLE9=Gambling Polka Dot Blues
TTITLE10=My Mother Must Have Been a Girl Like You
TTITLE11=I Love You a Thousand Ways
TTITLE12=Somebody's Stolen My Honey
TTITLE13=Blue Since You've Been Gone
TTITLE14=Death of Hank Williams
EXTD=Disc 2
EXTT0=
EXTT1=
EXTT2=
EXTT3=
EXTT4=
EXTT5=
EXTT6=
EXTT7=
EXTT8=
EXTT9=
EXTT10=
EXTT11=
EXTT12=
EXTT13=
EXTT14=
PLAYORDER=
